<svg xmlns="http://www.w3.org/2000/svg" xmlns:xlink="http://www.w3.org/1999/xlink" width="264" zoomAndPan="magnify" viewBox="0 0 198 56.999996" height="75" preserveAspectRatio="xMidYMid meet" version="1.0"><defs><g/><clipPath id="id1"><path d="M 175.550781 19.304688 L 193.484375 19.304688 L 193.484375 37.238281 L 175.550781 37.238281 Z M 175.550781 19.304688 " clip-rule="nonzero"/></clipPath></defs><g fill="#ffffff" fill-opacity="1"><g transform="translate(3.320227, 36.468505)"><g><path d="M 8.371094 -11.074219 L 8.371094 -13.027344 L 4.886719 -13.027344 L 4.886719 -18.695312 L 2.867188 -18.695312 L 2.867188 -13.027344 L 0.683594 -13.027344 L 0.683594 -11.074219 L 2.867188 -11.074219 L 2.867188 -3.417969 C 2.867188 -1.367188 4.59375 0.261719 6.613281 0.261719 C 7.261719 0.261719 7.980469 0.0664062 8.335938 -0.164062 L 8.335938 -1.695312 L 6.839844 -1.695312 C 5.796875 -1.695312 4.886719 -2.476562 4.886719 -3.679688 L 4.886719 -11.074219 Z M 8.371094 -11.074219 "/></g></g></g><g fill="#ffffff" fill-opacity="1"><g transform="translate(12.764532, 36.468505)"><g><path d="M 7.296875 -13.289062 C 6.21875 -13.289062 5.210938 -12.929688 4.398438 -12.34375 L 4.398438 -23.972656 L 2.378906 -23.972656 L 2.378906 0 L 4.398438 0 L 4.398438 -8.335938 C 4.398438 -10 5.699219 -11.269531 7.296875 -11.269531 C 8.890625 -11.269531 10.226562 -10 10.226562 -8.335938 L 10.226562 0 L 12.214844 0 L 12.214844 -8.335938 C 12.214844 -11.105469 10.03125 -13.289062 7.296875 -13.289062 Z M 7.296875 -13.289062 "/></g></g></g><g fill="#ffffff" fill-opacity="1"><g transform="translate(27.19152, 36.468505)"><g><path d="M 6.839844 0.261719 C 9.738281 0.261719 11.726562 -1.660156 11.726562 -4.691406 L 11.726562 -13.027344 L 9.738281 -13.027344 L 9.738281 -4.917969 C 9.738281 -2.964844 8.53125 -1.757812 6.839844 -1.757812 C 5.179688 -1.757812 3.941406 -2.964844 3.941406 -4.917969 L 3.941406 -13.027344 L 1.953125 -13.027344 L 1.953125 -4.691406 C 1.953125 -1.660156 3.910156 0.261719 6.839844 0.261719 Z M 6.839844 0.261719 "/></g></g></g><g fill="#ffffff" fill-opacity="1"><g transform="translate(40.836914, 36.468505)"><g><path d="M 7.554688 -13.289062 C 6.351562 -13.289062 5.242188 -12.800781 4.398438 -11.984375 L 4.398438 -13.027344 L 2.378906 -13.027344 L 2.378906 0 L 4.398438 0 L 4.398438 -8.304688 C 4.398438 -9.964844 5.730469 -11.269531 7.394531 -11.269531 C 9.054688 -11.269531 10.355469 -9.964844 10.355469 -8.304688 L 10.355469 0 L 12.375 0 L 12.375 -8.304688 C 12.375 -11.074219 10.0625 -13.289062 7.554688 -13.289062 Z M 7.554688 -13.289062 "/></g></g></g><g fill="#ffffff" fill-opacity="1"><g transform="translate(55.426736, 36.468505)"><g><path d="M 12.996094 -23.972656 L 12.996094 -11.335938 C 11.757812 -12.539062 10.097656 -13.289062 8.238281 -13.289062 C 4.496094 -13.289062 1.464844 -10.257812 1.464844 -6.515625 C 1.464844 -2.769531 4.496094 0.261719 8.238281 0.261719 C 10.097656 0.261719 11.757812 -0.488281 12.996094 -1.695312 L 12.996094 0 L 15.015625 0 L 15.015625 -23.972656 Z M 8.238281 -1.757812 C 5.601562 -1.757812 3.484375 -3.875 3.484375 -6.515625 C 3.484375 -9.152344 5.601562 -11.269531 8.238281 -11.269531 C 10.84375 -11.269531 12.996094 -9.152344 12.996094 -6.515625 C 12.996094 -3.875 10.84375 -1.757812 8.238281 -1.757812 Z M 8.238281 -1.757812 "/></g></g></g><g fill="#ffffff" fill-opacity="1"><g transform="translate(72.817285, 36.468505)"><g><path d="M 15.015625 -6.644531 C 14.917969 -10.390625 11.953125 -13.289062 8.238281 -13.289062 C 4.496094 -13.289062 1.464844 -10.257812 1.464844 -6.515625 C 1.464844 -2.769531 4.496094 0.261719 8.238281 0.261719 C 11.335938 0.261719 13.90625 -1.792969 14.753906 -4.59375 L 12.605469 -4.59375 C 11.886719 -2.898438 10.195312 -1.757812 8.238281 -1.757812 C 5.667969 -1.757812 3.613281 -3.710938 3.484375 -6.21875 L 14.980469 -6.21875 Z M 8.238281 -11.269531 C 10.324219 -11.269531 12.082031 -9.933594 12.703125 -8.042969 L 3.746094 -8.042969 C 4.398438 -9.933594 6.15625 -11.269531 8.238281 -11.269531 Z M 8.238281 -11.269531 "/></g></g></g><g fill="#ffffff" fill-opacity="1"><g transform="translate(89.1657, 36.468505)"><g><path d="M 8.726562 -13.289062 C 6.871094 -13.289062 5.375 -12.472656 4.398438 -11.171875 L 4.398438 -13.027344 L 2.378906 -13.027344 L 2.378906 0 L 4.398438 0 L 4.398438 -7.066406 C 4.398438 -9.445312 6.351562 -11.269531 8.726562 -11.269531 C 9.121094 -11.269531 9.445312 -11.234375 9.738281 -11.136719 L 9.738281 -13.191406 C 9.445312 -13.253906 9.121094 -13.289062 8.726562 -13.289062 Z M 8.726562 -13.289062 "/></g></g></g><g fill="#ffffff" fill-opacity="1"><g transform="translate(99.065939, 36.468505)"><g><path d="M 12.960938 -13.027344 L 12.960938 -11.398438 C 11.757812 -12.570312 10.0625 -13.289062 8.238281 -13.289062 C 4.496094 -13.289062 1.464844 -10.292969 1.464844 -6.515625 C 1.464844 -2.769531 4.496094 0.261719 8.238281 0.261719 C 10.097656 0.261719 11.757812 -0.488281 12.996094 -1.695312 L 12.996094 1.140625 C 12.996094 3.746094 10.84375 5.894531 8.238281 5.894531 C 6.121094 5.894531 4.332031 4.496094 3.710938 2.605469 L 1.855469 3.417969 C 2.800781 6.058594 5.308594 7.914062 8.238281 7.914062 C 11.984375 7.914062 15.015625 4.886719 15.015625 1.140625 L 15.015625 -13.027344 Z M 8.238281 -1.757812 C 5.601562 -1.757812 3.484375 -3.910156 3.484375 -6.515625 C 3.484375 -9.152344 5.601562 -11.269531 8.238281 -11.269531 C 10.84375 -11.269531 12.996094 -9.152344 12.996094 -6.515625 C 12.996094 -3.910156 10.84375 -1.757812 8.238281 -1.757812 Z M 8.238281 -1.757812 "/></g></g></g><g fill="#ffffff" fill-opacity="1"><g transform="translate(116.456487, 36.468505)"><g><path d="M 15.015625 -6.644531 C 14.917969 -10.390625 11.953125 -13.289062 8.238281 -13.289062 C 4.496094 -13.289062 1.464844 -10.257812 1.464844 -6.515625 C 1.464844 -2.769531 4.496094 0.261719 8.238281 0.261719 C 11.335938 0.261719 13.90625 -1.792969 14.753906 -4.59375 L 12.605469 -4.59375 C 11.886719 -2.898438 10.195312 -1.757812 8.238281 -1.757812 C 5.667969 -1.757812 3.613281 -3.710938 3.484375 -6.21875 L 14.980469 -6.21875 Z M 8.238281 -11.269531 C 10.324219 -11.269531 12.082031 -9.933594 12.703125 -8.042969 L 3.746094 -8.042969 C 4.398438 -9.933594 6.15625 -11.269531 8.238281 -11.269531 Z M 8.238281 -11.269531 "/></g></g></g><g fill="#ffffff" fill-opacity="1"><g transform="translate(132.804902, 36.468505)"><g><path d="M 16.347656 -1.695312 C 15.632812 -1.695312 15.015625 -2.183594 15.015625 -3.386719 L 15.015625 -13.027344 L 12.996094 -13.027344 L 12.996094 -11.335938 C 11.789062 -12.539062 10.097656 -13.289062 8.238281 -13.289062 C 4.496094 -13.289062 1.464844 -10.257812 1.464844 -6.515625 C 1.464844 -2.769531 4.496094 0.261719 8.238281 0.261719 C 10.195312 0.261719 11.953125 -0.652344 13.191406 -1.988281 C 13.613281 -0.652344 14.65625 0.261719 16.1875 0.261719 C 16.546875 0.261719 16.902344 0.164062 17.164062 0 L 17.164062 -1.695312 Z M 8.238281 -1.757812 C 5.601562 -1.757812 3.484375 -3.875 3.484375 -6.515625 C 3.484375 -9.152344 5.601562 -11.269531 8.238281 -11.269531 C 10.84375 -11.269531 12.996094 -9.152344 12.996094 -6.515625 C 12.996094 -3.875 10.84375 -1.757812 8.238281 -1.757812 Z M 8.238281 -1.757812 "/></g></g></g><g fill="#ffffff" fill-opacity="1"><g transform="translate(150.358285, 36.468505)"><g><path d="M 8.726562 -13.289062 C 6.871094 -13.289062 5.375 -12.472656 4.398438 -11.171875 L 4.398438 -13.027344 L 2.378906 -13.027344 L 2.378906 0 L 4.398438 0 L 4.398438 -7.066406 C 4.398438 -9.445312 6.351562 -11.269531 8.726562 -11.269531 C 9.121094 -11.269531 9.445312 -11.234375 9.738281 -11.136719 L 9.738281 -13.191406 C 9.445312 -13.253906 9.121094 -13.289062 8.726562 -13.289062 Z M 8.726562 -13.289062 "/></g></g></g><g fill="#ffffff" fill-opacity="1"><g transform="translate(160.258517, 36.468505)"><g><path d="M 3.09375 0.261719 C 4.070312 0.261719 4.886719 -0.554688 4.886719 -1.53125 C 4.886719 -2.507812 4.070312 -3.320312 3.09375 -3.320312 C 2.148438 -3.320312 1.304688 -2.507812 1.304688 -1.53125 C 1.304688 -0.554688 2.148438 0.261719 3.09375 0.261719 Z M 3.09375 0.261719 "/></g></g></g><g fill="#ffffff" fill-opacity="1"><g transform="translate(166.478721, 36.468505)"><g><path d="M 3.648438 -15.46875 C 4.398438 -15.46875 5.046875 -16.089844 5.046875 -16.839844 C 5.046875 -17.652344 4.398438 -18.238281 3.648438 -18.238281 C 2.867188 -18.238281 2.214844 -17.652344 2.214844 -16.839844 C 2.214844 -16.089844 2.867188 -15.46875 3.648438 -15.46875 Z M 2.636719 0 L 4.65625 0 L 4.65625 -13.027344 L 2.636719 -13.027344 Z M 2.636719 0 "/></g></g></g><g clip-path="url(#id1)"><path fill="#ffffff" d="M 184.519531 20.839844 L 185.050781 20.148438 L 185.671875 19.5 L 186.808594 19.726562 L 187.132812 20.566406 L 187.363281 21.40625 L 188.234375 21.835938 L 189.039062 21.503906 L 189.902344 21.253906 L 190.773438 22.015625 L 190.636719 22.90625 L 190.414062 23.746094 L 190.953125 24.554688 L 191.816406 24.671875 L 192.691406 24.886719 L 193.0625 25.980469 L 192.5 26.683594 L 191.886719 27.300781 L 191.949219 28.273438 L 192.640625 28.804688 L 193.289062 29.425781 L 193.0625 30.5625 L 192.226562 30.886719 L 191.382812 31.117188 L 190.953125 31.988281 L 191.285156 32.792969 L 191.535156 33.65625 L 190.773438 34.527344 L 189.882812 34.390625 L 189.042969 34.167969 L 188.234375 34.707031 L 188.117188 35.570312 L 187.902344 36.445312 L 186.808594 36.816406 L 186.105469 36.253906 L 185.488281 35.640625 L 184.519531 35.703125 L 183.984375 36.394531 L 183.363281 37.042969 L 182.230469 36.816406 L 181.902344 35.980469 L 181.675781 35.136719 L 180.800781 34.707031 L 179.996094 35.039062 L 179.132812 35.289062 L 178.261719 34.527344 L 178.398438 33.636719 L 178.621094 32.796875 L 178.082031 31.988281 L 177.21875 31.871094 L 176.34375 31.65625 L 175.972656 30.5625 L 176.535156 29.859375 L 177.152344 29.242188 L 177.085938 28.273438 L 176.398438 27.738281 L 175.746094 27.117188 L 175.972656 25.980469 L 176.8125 25.65625 L 177.652344 25.429688 L 178.082031 24.554688 L 177.75 23.75 L 177.5 22.886719 L 178.261719 22.015625 L 179.152344 22.152344 L 179.996094 22.375 L 180.800781 21.835938 L 180.917969 20.972656 L 181.132812 20.097656 L 182.226562 19.726562 L 182.929688 20.289062 L 183.546875 20.902344 Z M 184.519531 32.695312 C 186.960938 32.695312 188.941406 30.714844 188.941406 28.273438 C 188.941406 25.828125 186.960938 23.847656 184.519531 23.847656 C 182.074219 23.847656 180.09375 25.828125 180.09375 28.273438 C 180.09375 30.714844 182.074219 32.695312 184.519531 32.695312 Z M 184.519531 32.695312 " fill-opacity="1" fill-rule="nonzero"/><path fill="#ffffff" d="M 183.425781 37.238281 L 182.097656 36.972656 L 181.730469 36.027344 L 181.523438 35.261719 L 180.796875 34.902344 L 180.046875 35.210938 L 179.089844 35.488281 L 178.070312 34.597656 L 178.226562 33.59375 L 178.429688 32.828125 L 177.980469 32.15625 L 177.175781 32.046875 L 176.207031 31.808594 L 175.773438 30.527344 L 176.410156 29.734375 L 176.964844 29.171875 L 176.914062 28.363281 L 176.273438 27.867188 L 175.550781 27.179688 L 175.816406 25.851562 L 176.765625 25.484375 L 177.527344 25.277344 L 177.886719 24.550781 L 177.578125 23.800781 L 177.300781 22.84375 L 178.191406 21.824219 L 179.199219 21.980469 L 179.960938 22.183594 L 180.636719 21.730469 L 180.746094 20.929688 L 180.980469 19.960938 L 182.265625 19.523438 L 183.058594 20.164062 L 183.617188 20.71875 L 184.425781 20.667969 L 184.921875 20.027344 L 185.613281 19.304688 L 186.9375 19.570312 L 187.308594 20.519531 L 187.515625 21.28125 L 188.242188 21.640625 L 188.988281 21.332031 L 189.949219 21.054688 L 190.964844 21.945312 L 190.8125 22.953125 L 190.609375 23.714844 L 191.058594 24.390625 L 191.859375 24.496094 L 192.828125 24.734375 L 193.265625 26.015625 L 192.628906 26.808594 L 192.070312 27.371094 L 192.125 28.179688 L 192.765625 28.675781 L 193.484375 29.363281 L 193.21875 30.691406 L 192.273438 31.0625 L 191.507812 31.265625 L 191.152344 31.992188 L 191.457031 32.742188 L 191.738281 33.703125 L 190.84375 34.71875 L 189.839844 34.5625 L 189.074219 34.363281 L 188.402344 34.8125 L 188.292969 35.613281 L 188.054688 36.582031 L 186.773438 37.019531 L 185.980469 36.382812 L 185.417969 35.824219 L 184.609375 35.875 L 184.117188 36.515625 Z M 182.359375 36.660156 L 183.300781 36.847656 L 183.851562 36.277344 L 184.425781 35.53125 L 185.558594 35.457031 L 186.226562 36.121094 L 186.84375 36.617188 L 187.753906 36.308594 L 187.941406 35.539062 L 188.066406 34.605469 L 189.011719 33.972656 L 189.921875 34.214844 L 190.703125 34.335938 L 191.335938 33.613281 L 191.117188 32.851562 L 190.757812 31.980469 L 191.257812 30.964844 L 192.167969 30.71875 L 192.90625 30.429688 L 193.09375 29.488281 L 192.523438 28.941406 L 191.777344 28.363281 L 191.703125 27.234375 L 192.367188 26.566406 L 192.863281 25.945312 L 192.554688 25.039062 L 191.785156 24.847656 L 190.851562 24.722656 L 190.21875 23.78125 L 190.460938 22.867188 L 190.582031 22.085938 L 189.859375 21.453125 L 189.101562 21.675781 L 188.226562 22.03125 L 187.210938 21.53125 L 186.964844 20.621094 L 186.675781 19.882812 L 185.734375 19.695312 L 185.1875 20.269531 L 184.609375 21.015625 L 183.480469 21.089844 L 182.8125 20.421875 L 182.191406 19.929688 L 181.285156 20.238281 L 181.09375 21.003906 L 180.96875 21.941406 L 180.027344 22.570312 L 179.113281 22.328125 L 178.332031 22.207031 L 177.699219 22.929688 L 177.921875 23.691406 L 178.28125 24.5625 L 177.777344 25.578125 L 176.867188 25.828125 L 176.128906 26.113281 L 175.941406 27.054688 L 176.515625 27.601562 L 177.261719 28.179688 L 177.335938 29.3125 L 176.667969 29.980469 L 176.175781 30.597656 L 176.484375 31.507812 L 177.253906 31.695312 L 178.1875 31.820312 L 178.816406 32.761719 L 178.574219 33.675781 L 178.453125 34.457031 L 179.175781 35.089844 L 179.9375 34.871094 L 180.808594 34.511719 L 181.828125 35.011719 L 182.074219 35.921875 Z M 184.519531 32.875 C 181.980469 32.875 179.914062 30.808594 179.914062 28.273438 C 179.914062 25.734375 181.980469 23.667969 184.519531 23.667969 C 187.054688 23.667969 189.121094 25.734375 189.121094 28.273438 C 189.121094 30.808594 187.054688 32.875 184.519531 32.875 Z M 184.519531 24.027344 C 182.179688 24.027344 180.273438 25.929688 180.273438 28.273438 C 180.273438 30.613281 182.179688 32.515625 184.519531 32.515625 C 186.859375 32.515625 188.761719 30.613281 188.761719 28.273438 C 188.761719 25.929688 186.859375 24.027344 184.519531 24.027344 Z M 184.519531 24.027344 " fill-opacity="1" fill-rule="nonzero"/></g></svg>